<svg viewBox="0 0 1200 216" fill="none" xmlns="http://www.w3.org/2000/svg" class="w-full">
    <path fill-rule=" evenodd" clip-rule="evenodd"
        d="M0 108H33C67 108 133 108 200 126C267 144 333 180 400 174C467 168 533 120 600 84C667 48 733 24 800 24C867 24 933 48 1000 48C1067 48 1133 24 1167 12L1200 0V216H1167C1133 216 1067 216 1000 216C933 216 867 216 800 216C733 216 667 216 600 216C533 216 467 216 400 216C333 216 267 216 200 216C133 216 67 216 33 216H0V108Z"
        fill="currentColor" />
</svg>
